<svg xmlns="http://www.w3.org/2000/svg" viewBox="0 0 1500 365.34"><defs><style>.cls-1,.cls-2,.cls-3,.cls-4,.cls-5{fill:#fff;}.cls-1{opacity:0.14;}.cls-2{opacity:0.19;}.cls-3{opacity:0.15;}.cls-5{opacity:0.08;}</style></defs><title>Recurso 4</title><g id="Capa_2" data-name="Capa 2"><g id="Capa_1-2" data-name="Capa 1"><path class="cls-1" d="M0,361.83H1498.83S761,330.42,467.21,309.13C144,285.71,0,162.76,0,162.76Z"/><path class="cls-2" d="M2.34,39.81s152.23,178,735.36,256.44c188.89,25.42,761.13,65.58,761.13,65.58L0,339.58Z"/><path class="cls-3" d="M3.51,0S185,288.06,738.88,315C929.24,324.24,1500,358.31,1500,358.31H1.17Z"/><path class="cls-4" d="M0,365.34l1498.83-3.51s-734.3-7.8-1028.1-28.11C182.67,313.82,0,204.92,0,204.92Z"/><path class="cls-5" d="M2.34,339.58l1496.49,22.25S766.87,328.27,473.07,308C185,288.06,2.34,179.16,2.34,179.16Z"/></g></g></svg>