<svg xmlns="http://www.w3.org/2000/svg" viewBox="0 0 1281.53 314.21"><defs><style>.cls-1,.cls-2,.cls-3,.cls-4,.cls-5{fill:#fff;stroke:#fff;stroke-miterlimit:10;}.cls-1{opacity:0.14;}.cls-2{opacity:0.19;}.cls-3{opacity:0.15;}.cls-5{opacity:0.08;}</style></defs><title>separador_1</title><g id="Capa_2" data-name="Capa 2"><g id="Capa_1-2" data-name="Capa 1"><path class="cls-1" d="M.5,310.71h1280s-630.14-26.82-881-45c-276-20-399-125-399-125Z"/><path class="cls-2" d="M2.5,35.71s130,152,628,219c161.31,21.71,650,56,650,56l-1280-19Z"/><path class="cls-3" d="M3.5,1.71s155,246,628,269c162.57,7.91,650,37,650,37H1.5Z"/><path class="cls-4" d="M.5,313.71l1280-3s-627.09-6.66-878-24c-246-17-402-110-402-110Z"/><path class="cls-5" d="M2.5,291.71l1278,19s-625.09-28.66-876-46c-246-17-402-110-402-110Z"/></g></g></svg>